# Blender v2.82 (sub 7) OBJ File: 'sample_tree.blend'
# www.blender.org
mtllib sample_tree.mtl
o Cube
v 0.500000 1.000000 -0.500000
v 0.500000 0.000000 -0.500000
v 0.500000 1.000000 0.500000
v 0.500000 0.000000 0.500000
v -0.500000 1.000000 -0.500000
v -0.500000 0.000000 -0.500000
v -0.500000 1.000000 0.500000
v -0.500000 0.000000 0.500000
v 1.098473 1.000000 1.098473
v -1.098473 1.000000 1.098473
v 1.098473 1.000000 -1.098473
v -1.098473 1.000000 -1.098473
v 0.871511 3.304522 0.871511
v -0.871511 3.304522 0.871511
v 0.871511 3.304522 -0.871511
v -0.871511 3.304522 -0.871511
v 1.229947 3.304522 1.229947
v -1.229947 3.304522 1.229947
v 1.229947 3.304522 -1.229947
v -1.229947 3.304522 -1.229947
v 0.681955 5.764389 0.681955
v -0.681955 5.764389 0.681955
v 0.681955 5.764389 -0.681955
v -0.681955 5.764389 -0.681955
v 0.999874 5.764389 0.999874
v -0.999874 5.764389 0.999874
v 0.999874 5.764389 -0.999874
v -0.999874 5.764389 -0.999874
v 0.000000 7.002811 0.000000
v 0.000000 7.002811 0.000000
v 0.000000 7.002811 0.000000
v 0.000000 7.002811 0.000000
vt 0.625000 0.000000
vt 0.625000 0.250000
vt 0.625000 0.250000
vt 0.625000 0.750000
vt 0.375000 1.000000
vt 0.375000 0.750000
vt 0.375000 0.250000
vt 0.375000 0.000000
vt 0.375000 0.500000
vt 0.125000 0.750000
vt 0.125000 0.500000
vt 0.625000 0.500000
vt 0.625000 0.000000
vt 0.625000 0.250000
vt 0.625000 0.750000
vt 0.625000 0.500000
vt 0.625000 1.000000
vt 0.625000 1.000000
vt 0.625000 0.750000
vt 0.625000 1.000000
vt 0.625000 1.000000
vt 0.625000 0.500000
vt 0.625000 0.250000
vt 0.625000 0.500000
vt 0.625000 0.500000
vt 0.625000 0.750000
vt 0.625000 0.000000
vt 0.625000 0.000000
vt 0.625000 0.250000
vt 0.625000 0.250000
vt 0.625000 0.750000
vt 0.625000 0.000000
vt 0.625000 1.000000
vt 0.625000 0.500000
vt 0.625000 0.250000
vt 0.625000 0.500000
vt 0.625000 1.000000
vt 0.625000 0.750000
vt 0.875000 0.750000
vt 0.625000 0.750000
vt 0.625000 0.000000
vt 0.625000 1.000000
vt 0.625000 0.000000
vt 0.875000 0.500000
vn 0.0000 -1.0000 0.0000
vn 0.0000 0.0000 1.0000
vn -1.0000 0.0000 0.0000
vn 1.0000 0.0000 0.0000
vn 0.0000 0.0000 -1.0000
vn -0.9952 0.0980 0.0000
vn 0.0000 0.0980 0.9952
vn 0.0000 0.0980 -0.9952
vn 0.9952 0.0980 0.0000
vn 0.0000 0.2174 -0.9761
vn 0.9761 0.2174 0.0000
vn -0.9761 0.2174 0.0000
vn 0.0000 0.2174 0.9761
vn 0.0000 0.6282 -0.7781
vn 0.7781 0.6282 0.0000
vn -0.7781 0.6282 0.0000
vn 0.0000 0.6282 0.7781
usemtl Material
s off
f 7/1/1 12/2/1 5/3/1
f 3/4/2 8/5/2 4/6/2
f 7/1/3 6/7/3 8/8/3
f 2/9/1 8/10/1 6/11/1
f 1/12/4 4/6/4 2/9/4
f 5/3/5 2/9/5 6/7/5
f 10/13/6 16/14/6 12/2/6
f 1/12/1 9/15/1 3/4/1
f 5/3/1 11/16/1 1/12/1
f 3/4/1 10/17/1 7/18/1
f 13/19/1 18/20/1 14/21/1
f 9/15/7 14/21/7 10/17/7
f 12/2/8 15/22/8 11/16/8
f 11/16/9 13/19/9 9/15/9
f 20/23/10 23/24/10 19/25/10
f 16/14/1 19/25/1 15/22/1
f 15/22/1 17/26/1 13/19/1
f 14/27/1 20/23/1 16/14/1
f 22/28/1 28/29/1 24/30/1
f 19/25/11 21/31/11 17/26/11
f 18/32/12 24/30/12 20/23/12
f 17/26/13 22/33/13 18/20/13
f 27/34/2 32/35/2 31/36/2
f 21/31/1 26/37/1 22/33/1
f 24/30/1 27/34/1 23/24/1
f 23/24/1 25/38/1 21/31/1
f 31/36/2 30/39/2 29/40/2
f 25/38/2 31/36/2 29/40/2
f 28/29/2 30/41/2 32/35/2
f 26/37/2 29/40/2 30/42/2
f 7/1/1 10/13/1 12/2/1
f 3/4/2 7/18/2 8/5/2
f 7/1/3 5/3/3 6/7/3
f 2/9/1 4/6/1 8/10/1
f 1/12/4 3/4/4 4/6/4
f 5/3/5 1/12/5 2/9/5
f 10/13/6 14/27/6 16/14/6
f 1/12/1 11/16/1 9/15/1
f 5/3/1 12/2/1 11/16/1
f 3/4/1 9/15/1 10/17/1
f 13/19/1 17/26/1 18/20/1
f 9/15/7 13/19/7 14/21/7
f 12/2/8 16/14/8 15/22/8
f 11/16/9 15/22/9 13/19/9
f 20/23/10 24/30/10 23/24/10
f 16/14/1 20/23/1 19/25/1
f 15/22/1 19/25/1 17/26/1
f 14/27/1 18/32/1 20/23/1
f 22/28/1 26/43/1 28/29/1
f 19/25/11 23/24/11 21/31/11
f 18/32/12 22/28/12 24/30/12
f 17/26/13 21/31/13 22/33/13
f 27/34/14 28/29/14 32/35/14
f 21/31/1 25/38/1 26/37/1
f 24/30/1 28/29/1 27/34/1
f 23/24/1 27/34/1 25/38/1
f 31/36/2 32/44/2 30/39/2
f 25/38/15 27/34/15 31/36/15
f 28/29/16 26/43/16 30/41/16
f 26/37/17 25/38/17 29/40/17
